<svg width="22" height="24" viewBox="0 0 22 24" fill="none" xmlns="http://www.w3.org/2000/svg">
<path d="M15.125 0.533447H6.875C3.07863 0.533447 0 3.7489 0 7.714V16.3307C0 20.2958 3.07863 23.5112 6.875 23.5112H15.125C18.9214 23.5112 22 20.2958 22 16.3307V7.714C22 3.7489 18.9214 0.533447 15.125 0.533447ZM19.9375 16.3307C19.9375 19.1024 17.7787 21.3571 15.125 21.3571H6.875C4.22125 21.3571 2.0625 19.1024 2.0625 16.3307V7.714C2.0625 4.94231 4.22125 2.68761 6.875 2.68761H15.125C17.7787 2.68761 19.9375 4.94231 19.9375 7.714V16.3307Z" fill="#F13C6E"/>
<path d="M11 6.27783C7.96262 6.27783 5.5 8.84991 5.5 12.0223C5.5 15.1946 7.96262 17.7667 11 17.7667C14.0374 17.7667 16.5 15.1946 16.5 12.0223C16.5 8.84991 14.0374 6.27783 11 6.27783ZM11 15.6126C9.10525 15.6126 7.5625 14.0012 7.5625 12.0223C7.5625 10.0419 9.10525 8.432 11 8.432C12.8948 8.432 14.4375 10.0419 14.4375 12.0223C14.4375 14.0012 12.8948 15.6126 11 15.6126Z" fill="#F13C6E"/>
<path d="M16.9125 6.61244C17.3173 6.61244 17.6454 6.26973 17.6454 5.84699C17.6454 5.42425 17.3173 5.08154 16.9125 5.08154C16.5077 5.08154 16.1796 5.42425 16.1796 5.84699C16.1796 6.26973 16.5077 6.61244 16.9125 6.61244Z" fill="#F13C6E"/>
</svg>
